<?xml version="1.0" encoding="UTF-8"?>
<svg width="654px" height="110px" viewBox="0 0 654 110" version="1.1" xmlns="http://www.w3.org/2000/svg" xmlns:xlink="http://www.w3.org/1999/xlink">
    <title>zenthropic-logo</title>
    <g id="Page-1" stroke="none" stroke-width="1" fill="none" fill-rule="evenodd">
        <g id="zenthropic-logo" fill-rule="nonzero">
            <path d="M109.329651,80.11 L109.329651,70.2 C109.322045,69.8335907 109.450323,69.4772617 109.69,69.2 L137.16,37.58 C137.535048,37.1450883 137.622485,36.5315917 137.38387,36.0092197 C137.145256,35.4868478 136.624289,35.151264 136.05,35.15 L112.83,35.15 C112.018141,35.15 111.36,34.4918586 111.36,33.68 L111.36,24.33 C111.359991,23.9410451 111.515184,23.5681648 111.791154,23.2940724 C112.067123,23.01998 112.441054,22.8673359 112.83,22.8699657 L157.59,22.8699657 C157.978946,22.8673359 158.352877,23.01998 158.628846,23.2940724 C158.904816,23.5681648 159.060009,23.9410451 159.06,24.33 L159.06,34.83 C159.065195,35.1977262 158.933294,35.5542145 158.69,35.83 L131.31,66.47 C130.923009,66.9026643 130.826871,67.5225472 131.064631,68.0521043 C131.302392,68.5816614 131.829519,68.9217108 132.41,68.92 L158.41,68.92 C158.798946,68.9173359 159.172877,69.06998 159.448846,69.3440724 C159.724816,69.6181648 159.88,69.9910451 159.88,70.38 L159.88,80.09 C159.88,80.4798682 159.725125,80.8537685 159.449447,81.129447 C159.173768,81.4051254 158.799868,81.56 158.41,81.56 L110.8,81.56 C109.995888,81.56 109.34094,80.9140374 109.329651,80.11 L109.329651,80.11 Z" id="Path" fill="#1C3557"></path>
            <path d="M181.94,56.3 C181.520548,56.3000391 181.12109,56.4792628 180.842184,56.7925543 C180.563278,57.1058459 180.431492,57.5233621 180.48,57.94 C180.753148,61.2576979 182.06137,64.4058246 184.22,66.94 C186.559319,69.5641667 189.946865,71.00864 193.46,70.88 C195.82213,70.9265023 198.152276,70.3284084 200.2,69.15 C201.760086,68.2709289 202.976224,66.8891144 203.65,65.23 C203.873411,64.6806325 204.406943,64.3209924 205,64.32 L217.88,64.32 C218.366243,64.318567 218.822171,64.5560689 219.099673,64.9553523 C219.377175,65.3546358 219.440845,65.8647566 219.27,66.32 C217.592721,71.1265431 214.496283,75.31092 210.39,78.32 C205.64796,81.6479148 199.961265,83.3623376 194.17,83.21 C174.623333,83.21 164.846667,72.5433333 164.84,51.21 C164.779757,47.038256 165.425531,42.8863693 166.75,38.93 C167.917813,35.4372308 169.805093,32.2281728 172.29,29.51 C174.759911,26.8662356 177.795588,24.815103 181.17,23.51 C185.018748,22.0599951 189.107869,21.354155 193.22,21.43 C202.28,21.43 209.136667,24.33 213.79,30.13 C218.243333,35.69 220.576667,43.94 220.790309,54.88 C220.79811,55.2741281 220.646497,55.6547867 220.369637,55.9354134 C220.092777,56.2160401 219.714202,56.3727835 219.32,56.37 L181.94,56.3 Z M203.2,46.5200088 C203.618396,46.5167994 204.015888,46.3366504 204.2941,46.0241382 C204.572313,45.7116261 204.705246,45.2959551 204.66,44.88 C204.512379,43.5069925 204.175867,42.1609462 203.66,40.88 C203.065663,39.350355 202.159834,37.9609628 201,36.8 C199.911324,35.7404805 198.608953,34.9256462 197.18,34.41 C195.765585,33.9002534 194.273466,33.6397246 192.77,33.64 C189.732302,33.6131481 186.818737,34.8437222 184.72,37.04 C182.683801,39.1747889 181.392861,41.9110209 181.04,44.84 C180.97894,45.2630166 181.105011,45.6916629 181.385367,46.0142644 C181.665723,46.336866 182.072602,46.5214766 182.5,46.5200088 L203.2,46.5200088 Z" id="Shape" fill="#1C3557"></path>
            <path d="M323.27,47.2 L334.76,47.2 C335.149868,47.2 335.523768,47.3548746 335.799447,47.630553 C336.075125,47.9062315 336.230217,48.2801318 336.230217,48.67 L336.230217,59.67 C336.241715,62.6835198 335.7794,65.680132 334.86,68.55 C333.972007,71.326272 332.510414,73.8849111 330.57,76.06 C328.520413,78.3192653 325.992242,80.0924009 323.17,81.25 C319.778028,82.5979393 316.148938,83.2475703 312.5,83.16 C308.742841,83.2606273 305.003313,82.6113093 301.5,81.25 C298.667588,80.1124736 296.123038,78.3603209 294.05,76.12 C292.09442,73.964098 290.645733,71.3981454 289.81,68.61 C288.927383,65.6714695 288.485905,62.6181875 288.499673,59.55 L288.499673,8.55 C288.499673,8.16104507 288.655184,7.78816481 288.931154,7.51407242 C289.207123,7.23998002 289.581054,7.08733593 289.97,7.0899657 L302.3,7.0899657 C302.688946,7.08733593 303.062877,7.23998002 303.338846,7.51407242 C303.614816,7.78816481 303.770009,8.16104507 303.77,8.55 L303.77,21.48 C303.767336,21.8689458 303.91998,22.2428767 304.194072,22.5188464 C304.468165,22.7948162 304.841045,22.9500091 305.23,22.95 L334.73,22.95 C335.118946,22.9473359 335.492877,23.09998 335.768846,23.3740724 C336.044816,23.6481648 336.200009,24.0210451 336.2,24.41 L336.2,32.41 C336.2,32.7998682 336.045125,33.1737685 335.769447,33.449447 C335.493768,33.7251254 335.119868,33.88 334.73,33.88 L305.23,33.88 C304.841045,33.8799909 304.468165,34.0351838 304.194072,34.3111536 C303.91998,34.5871233 303.767336,34.9610542 303.77,35.35 L303.77,58 C303.77,61.7266667 304.463333,64.6066667 305.85,66.64 C307.236667,68.6733333 309.523333,69.6733333 312.71,69.64 C315.81,69.64 318.09,68.64 319.57,66.64 C321.05,64.64 321.77,61.83 321.77,58.18 L321.77,48.64 C321.777876,48.2501052 321.940356,47.879318 322.221678,47.6092483 C322.503001,47.3391787 322.880109,47.1919618 323.27,47.2 Z" id="Path" fill="#1C3557"></path>
            <path d="M383.37,81.58 C382.980132,81.58 382.606232,81.4251254 382.330553,81.149447 C382.054875,80.8737685 381.9,80.4998682 381.9,80.11 L381.9,45.21 C381.9,40.76 381.13,37.71 379.58,36.08 C378.03,34.45 375.46,33.64 371.89,33.64 C370.115276,33.6114459 368.358477,33.9984211 366.76,34.77 C365.272653,35.5074511 363.967846,36.5663256 362.94,37.87 C361.888496,39.2205549 361.101382,40.7574621 360.62,42.4 C360.087077,44.2012707 359.824218,46.0716138 359.84,47.95 L359.84,80.11 C359.84,80.9218586 359.181859,81.58 358.37,81.58 L345.81,81.58 C345.420132,81.58 345.046232,81.4251254 344.770553,81.149447 C344.494875,80.8737685 344.34,80.4998682 344.34,80.11 L344.34,2.91 C344.34,2.09814142 344.998141,1.44 345.81,1.44 L358.37,1.44 C359.181859,1.44 359.84,2.09814142 359.84,2.91 L359.84,25.91 C359.847451,26.5065459 360.21471,27.0394269 360.769535,27.2587253 C361.32436,27.4780237 361.956704,27.3402425 362.37,26.91 L362.37,26.91 C363.549332,25.7415536 364.897759,24.7572021 366.37,23.99 C367.959547,23.1673538 369.636817,22.5266365 371.37,22.08 C373.239094,21.6030516 375.161021,21.3644907 377.09,21.37 C383.13,21.37 388.04,23.02 391.82,26.32 C395.6,29.62 397.49,34.21 397.49,40.09 L397.49,80.09 C397.49,80.9018586 396.831859,81.56 396.02,81.56 L383.37,81.58 Z" id="Path" fill="#1C3557"></path>
            <path d="M474.94,84 C470.580714,84.0766923 466.247762,83.3092573 462.18,81.74 C454.909924,78.930669 449.268808,73.0293071 446.79,65.64 C445.41412,61.6112859 444.737694,57.3768588 444.79,53.12 C444.736337,48.817262 445.440411,44.5386586 446.87,40.48 C449.427901,33.1206207 455.103714,27.2654946 462.38,24.48 C466.394509,22.949572 470.664244,22.1994834 474.96,22.27 C479.196887,22.2037157 483.406891,22.954047 487.36,24.48 C494.566223,27.2651876 500.173572,33.092145 502.68,40.4 C504.118595,44.4981047 504.826015,48.8170884 504.77,53.16 C504.829632,57.4836023 504.122008,61.783518 502.68,65.86 C501.376224,69.4812804 499.332879,72.7914996 496.68,75.58 C494.0326,78.3268753 490.817875,80.4632003 487.26,81.84 C483.327667,83.3354811 479.146544,84.0685351 474.94,84 Z M474.94,71 C484.4,71 489.13,65.0366667 489.13,53.11 C489.13,41.1833333 484.4,35.26 474.94,35.34 C465.473333,35.34 460.743333,41.2633333 460.749993,53.11 C460.756667,64.9566667 465.486667,70.92 474.94,71 Z" id="Shape" fill="#1C3557"></path>
            <path d="M576.75,80.11 L576.75,24.37 C576.75,23.9810451 576.905184,23.6081648 577.181154,23.3340724 C577.457123,23.05998 577.831054,22.9073359 578.22,22.9099657 L590.79,22.9099657 C591.178946,22.9073359 591.552877,23.05998 591.828846,23.3340724 C592.104816,23.6081648 592.26,23.9810451 592.26,24.37 L592.26,80.11 C592.26,80.9218586 591.601859,81.58 590.79,81.58 L578.22,81.58 C577.408141,81.58 576.75,80.9218586 576.75,80.11 Z" id="Path" fill="#1C3557"></path>
            <path d="M652.1,60.35 C652.536788,60.3520601 652.950359,60.5469571 653.229987,60.8825106 C653.509615,61.2180641 653.626739,61.6600011 653.55,62.09 C653.090033,64.7404192 652.19102,67.295507 650.89,69.65 C649.384325,72.3847329 647.379767,74.8132676 644.98,76.81 C642.55254,78.8248046 639.790766,80.3986095 636.82,81.46 C630.039375,83.7853395 622.660985,83.6792774 615.95,81.16 C612.674209,79.8589638 609.751675,77.8032541 607.42,75.16 C604.908656,72.2769344 603.019259,68.9066588 601.87,65.26 C600.471329,60.8064692 599.796085,56.157414 599.87,51.49 C599.785246,46.877593 600.460961,42.2827315 601.87,37.89 C602.996847,34.3942564 604.893393,31.1957577 607.42,28.53 C609.847086,26.0808309 612.807486,24.225875 616.07,23.11 C619.693097,21.8727781 623.501844,21.2673023 627.33,21.32 C630.870539,21.2744252 634.395421,21.7977554 637.77,22.87 C640.781878,23.8302922 643.577444,25.3690422 646,27.4 C648.326881,29.3691863 650.21428,31.8050891 651.54,34.55 C652.693682,36.9577994 653.443683,39.5388826 653.76,42.19 C653.814725,42.6098451 653.685765,43.0328994 653.406144,43.350825 C653.126522,43.6687507 652.723396,43.8506713 652.3,43.85 L639.53,43.85 C638.847321,43.8516594 638.25595,43.3768971 638.11,42.71 C637.67226,40.3935782 636.459055,38.2951576 634.67,36.76 C632.580415,35.0294358 629.931958,34.119362 627.22,34.2 C625.628847,34.1877991 624.04909,34.4691722 622.56,35.03 C621.087042,35.6200379 619.794192,36.5853656 618.81,37.83 C617.608897,39.3893035 616.734787,41.174938 616.24,43.08 C615.537063,45.7043844 615.20054,48.4133925 615.24,51.13 C615.24,57.57 616.393333,62.34 618.7,65.44 C621.006667,68.54 623.673333,70.09 626.7,70.09 C629.492256,70.1607959 632.225458,69.2791177 634.45,67.59 C636.346419,66.0810964 637.606402,63.914498 637.98,61.52 C638.097219,60.821573 638.701805,60.31 639.41,60.31 L652.1,60.35 Z" id="Path" fill="#1C3557"></path>
            <path d="M512.14,24.37 L512.14,107.9 C512.14,108.288955 512.295184,108.661835 512.571154,108.935928 C512.847123,109.21002 513.221054,109.362664 513.61,109.360034 L526.15,109.360034 C526.961859,109.360034 527.62,108.701859 527.62,107.89 L527.43,78 C527.439863,77.4120009 527.801544,76.8873188 528.347564,76.6689106 C528.893585,76.4505025 529.517341,76.5810097 529.93,77 C533.811716,81.0467367 539.213985,83.2780298 544.82,83.15 C548.34017,83.2043636 551.824925,82.4410038 555,80.92 C557.979653,79.456349 560.572924,77.3118474 562.57,74.66 C564.727536,71.7833179 566.325263,68.5268052 567.28,65.06 C568.394089,61.083758 568.936199,56.9691113 568.89,52.84 C568.960027,48.3547467 568.32219,43.8865153 567,39.6 C565.877086,36.003813 564.096988,32.6470571 561.75,29.7 C559.593023,27.0482633 556.856058,24.9271154 553.75,23.5 C550.544687,22.0576683 547.064726,21.3275587 543.55,21.36 C538.03,21.36 533.573333,23.0266667 530.18,26.36 C529.767341,26.7789903 529.143585,26.9094975 528.597564,26.6910894 C528.051544,26.4726812 527.689863,25.9479991 527.68,25.36 L527.68,24.43 C527.68,24.0401318 527.525125,23.6662315 527.249447,23.390553 C526.973768,23.1148746 526.599868,22.96 526.21,22.96 L513.61,22.96 C512.821007,22.9593425 512.172204,23.5816643 512.14,24.37 L512.14,24.37 Z M539.81,69.89 C531.143333,69.89 526.81,63.53 526.81,50.81 C526.81,45.8033333 528.063333,41.75 530.57,38.65 C532.771211,35.6975707 536.247433,33.9706015 539.93,34 C543.736653,33.9551827 547.314902,35.8118215 549.47,38.95 C551.93,42.25 553.16,46.5233333 553.16,51.77 C553.16,63.85 548.71,69.89 539.81,69.89 Z" id="Shape" fill="#1C3557"></path>
            <path d="M438.07,21.3599657 C436.516856,21.3580792 434.964694,21.4381908 433.42,21.6 C431.884033,21.7632358 430.379017,22.1436983 428.95,22.73 C427.398228,23.3665377 425.949198,24.2292159 424.65,25.29 L424.03,25.82 C423.597279,26.1976713 422.983329,26.2865476 422.461272,26.0470916 C421.939215,25.8076355 421.606054,25.284341 421.61,24.71 L421.61,24.37 C421.612664,23.9810542 421.46002,23.6071233 421.185928,23.3311536 C420.911835,23.0551838 420.538955,22.8999909 420.15,22.9 L407.58,22.9 C407.191054,22.8973359 406.817123,23.04998 406.541154,23.3240724 C406.265184,23.5981648 406.11,23.9710451 406.11,24.36 L406.11,80.1 C406.11,80.4898682 406.264875,80.8637685 406.540553,81.139447 C406.816232,81.4151254 407.190132,81.57 407.58,81.57 L420.15,81.57 C420.538955,81.57 420.911835,81.4148162 421.185928,81.1388464 C421.46002,80.8628767 421.612664,80.4889458 421.61,80.1 L421.61,41.59 C421.610226,41.0354043 421.918455,40.5268262 422.41,40.27 C427.339055,37.6324941 432.932438,36.4957406 438.5,37 C438.910841,37.0395826 439.319241,36.9034201 439.624129,36.62521 C439.929017,36.3469998 440.101902,35.9527394 440.100016,35.54 L440.100016,22.82 C440.100016,22.4310451 439.944816,22.0581648 439.668846,21.7840724 C439.392877,21.50998 439.018946,21.3573359 438.63,21.3599657 L438.07,21.3599657 Z" id="Path" fill="#1C3557"></path>
            <path d="M278.46,30.85 C277.540757,28.5472431 276.158948,26.4575122 274.4,24.71 C272.656536,23.0204137 270.559286,21.7395199 268.26,20.96 C265.767018,20.1027266 263.146158,19.6766255 260.51,19.7 C255.743333,19.7 251.846667,20.5566667 248.82,22.27 C247.470178,23.0299015 246.228994,23.9683578 245.13,25.06 C244.713914,25.4692368 244.09514,25.5935714 243.553271,25.3768235 C243.011401,25.1600756 242.649071,24.6432999 242.63,24.06 L242.63,21.29 L228.23,21.29 C227.840132,21.29 227.466232,21.4448746 227.190553,21.720553 C226.914875,21.9962315 226.76,22.3701318 226.76,22.76 L226.76,78.5 C226.76,78.8889549 226.915184,79.2618352 227.191154,79.5359276 C227.467123,79.81002 227.841054,79.9626641 228.23,79.9600343 L240.8,79.9600343 C241.606336,79.9600343 242.26,79.3063357 242.26,78.5 L242.26,46.3 C242.26,37.3066667 246.276667,32.8133333 254.31,32.82 C257.96,32.82 260.55,33.62 262.06,35.21 C263.57,36.8 264.32,39.86 264.32,44.39 L264.32,78.46 C264.319991,78.8489549 264.475184,79.2218352 264.751154,79.4959276 C265.027123,79.77002 265.401054,79.9226641 265.79,79.92 L278.48,79.92 C278.868946,79.9226641 279.242877,79.77002 279.518846,79.4959276 C279.794816,79.2218352 279.950009,78.8489549 279.95,78.46 L279.95,39.26 C280.003633,36.3865499 279.49756,33.5301234 278.46,30.85 Z" id="Path" fill="#1C3557"></path>
            <path d="M46,28 C30.8784435,28 18.62,40.2584435 18.62,55.38 C18.62,70.5015565 30.8784435,82.76 46,82.76 C61.1215565,82.76 73.38,70.5015565 73.38,55.38 C73.38,40.2584435 61.1215565,28 46,28 Z M46,76.23 C37.5633276,76.2380889 29.953261,71.1611165 26.7209485,63.3681926 C23.4886361,55.5752687 25.2712022,46.6024642 31.2368332,40.6368332 C37.2024642,34.6712022 46.1752687,32.8886361 53.9681926,36.1209485 C61.7611165,39.353261 66.8380889,46.9633276 66.8300097,55.4 C66.8300097,66.9073311 57.5073258,76.2389618 46,76.25 L46,76.23 Z" id="Shape" fill="#1C3557"></path>
            <circle id="Oval" fill="#3CBEB3" cx="584.51" cy="8.58" r="7.94"></circle>
            <path d="M57,18.16 C53.4641088,16.8628946 49.758972,16.0848159 46,15.85 L43.16,15.85 C42.69,15.85 42.16,15.85 41.74,15.85 L40.32,15.98 C39.38,16.08 38.41,16.1 37.48,16.27 L34.66,16.81 C22.9637558,19.5379035 13.0217488,27.196823 7.4,37.81 C5.4566122,41.4029409 4.07077732,45.2704655 3.29,49.28 C1.55081005,57.5287057 2.27054815,66.106454 5.36,73.95 C-0.715774961,62.1663192 -1.4119385,48.3341692 3.45,36 C5.08771078,31.8084887 7.33161273,27.8799757 10.11,24.34 C15.8091606,17.0473973 23.4836109,11.5458126 32.22,8.49 L35.57,7.44 C36.69,7.11 37.85,6.94 39,6.68 L40.73,6.33 C41.31,6.23 41.9,6.2 42.48,6.13 L46.01,5.78 C50.7825328,5.54416466 55.5642672,5.99203132 60.21,7.11 L60.29,7.11 C63.404886,7.85834584 65.3233458,10.990114 64.575,14.105 C63.8266542,17.219886 60.694886,19.1383458 57.58,18.39 C57.3828085,18.3234444 57.1892135,18.2466739 57,18.16 L57,18.16 Z" id="Path" fill="#3CBEB3"></path>
            <path d="M33.67,92.22 C40.8576979,95.1436268 48.7531731,95.8607643 56.35,94.28 L57.8,94 C58.28,93.9 58.74,93.73 59.21,93.6 C60.15,93.3 61.11,93.06 62.04,92.73 L64.79,91.6 C65.2579954,91.4309414 65.7098194,91.2200903 66.14,90.97 L67.46,90.27 L68.79,89.57 C69.23,89.33 69.63,89.03 70.05,88.76 C70.88,88.2 71.75,87.69 72.55,87.08 L74.91,85.18 C75.72,84.56 76.38,83.79 77.12,83.1 C83.009192,77.2249889 87.0249733,69.7362875 88.66,61.58 C90.4176688,53.1515204 89.6167429,44.3900874 86.36,36.42 C90.5934922,44.241106 92.3938097,53.1486731 91.53,62 C91.1586091,66.5132022 90.0927237,70.9420233 88.37,75.13 C86.6845378,79.4175631 84.350673,83.4208833 81.45,87 C80.7,87.87 80.03,88.83 79.2,89.64 L76.74,92.12 C75.9,92.92 74.97,93.63 74.08,94.39 C73.63,94.75 73.19,95.15 72.72,95.49 L71.26,96.49 L69.81,97.49 C69.3343874,97.8400081 68.8291375,98.1478425 68.3,98.41 L65.19,100 C64.13,100.52 63.03,100.95 61.94,101.42 C61.39,101.65 60.85,101.91 60.28,102.1 L58.58,102.63 C49.3166192,105.63391 39.3702424,105.82184 30,103.17 L29.89,103.17 C27.9250392,102.494768 26.4695724,100.822534 26.07186,98.783212 C25.6741477,96.74389 26.3946116,94.6473018 27.9618601,93.2832118 C29.5291086,91.9191219 31.7050392,91.4947679 33.67,92.17 L33.67,92.22 Z" id="Path" fill="#3CBEB3"></path>
            <circle id="Oval" fill="#3CBEB3" cx="45.98" cy="55.4" r="9.27"></circle>
        </g>
    </g>
</svg>